<svg width="512" height="512" viewBox="0 0 512 512" fill="none" xmlns="http://www.w3.org/2000/svg">
  <path
    d="M89.728 512C83.328 512 80.128 508.8 80.128 502.4V146.432C80.128 142.336 81.408 138.496 83.968 134.912L174.592 5.88797C177.408 2.04797 181.504 0.127975 186.88 0.127975H324.352C329.984 0.127975 334.08 2.04797 336.64 5.88797L428.032 134.912C430.592 138.496 431.872 142.336 431.872 146.432V502.4C431.872 508.8 428.672 512 422.272 512H281.728C275.328 512 272.128 508.8 272.128 502.4V358.4H239.872V502.4C239.872 508.8 236.672 512 230.272 512H89.728ZM256 225.152C267.008 225.152 275.968 221.696 282.88 214.784C289.792 207.872 293.248 199.04 293.248 188.288C293.248 177.28 289.792 168.32 282.88 161.408C275.968 154.496 267.008 151.04 256 151.04C244.992 151.04 236.032 154.496 229.12 161.408C222.208 168.32 218.752 177.28 218.752 188.288C218.752 199.04 222.208 207.872 229.12 214.784C236.032 221.696 244.992 225.152 256 225.152Z"
    fill="dodgerblue" />
</svg>
  